# xmcd CD database file
#
# Track frame offsets:
#	150
#	15784
#	46337
#	64372
#	85370
#	104014
#
# Disc length: 1600 seconds
#
# Revision: 1
# Processed by: cddbd v1.5.2PL0 Copyright (c) Steve Scherf et al.
# Submitted via: Feurio! 1.68 - http://www.feurio.com
#
DISCID=47063e06
DTITLE=Daily Blues - Playin' the Blues
DYEAR=1900
DGENRE=rock
TTITLE0=Born Under a Bad Sign
TTITLE1=The Thrill is Gone
TTITLE2=T-Bone Shuffle
TTITLE3=Put the Shoe on the oter Feet
TTITLE4=Big Legged Woman
TTITLE5=Chilins Con Carne
EXTD=
EXTT0=
EXTT1=
EXTT2=
EXTT3=
EXTT4=
EXTT5=
PLAYORDER=
